# xmcd
#
# Track frame offsets:
#	200
#	11887
#	23240
#	34965
#	54630
#	67182
#	83400
#	96815
#	121117
#	130110
#	148415
#	162940
#
# Disc length: 2232 seconds
#
# Revision: 2
# Processed by: cddbd v1.5.1PL0 Copyright (c) Steve Scherf et al.
# Submitted via: audiograbber 1.83.01
#
DISCID=a408b60c
DTITLE=Memphis Slim - Live At The Hot Club De France
DYEAR=1994
DGENRE=Blues
TTITLE0=Mellow One
TTITLE1=Rocking The House
TTITLE2=Mama The Way You Look Tonight
TTITLE3=I'm Like The Young People
TTITLE4=All On One Boogie
TTITLE5=The Comeback
TTITLE6=How Long Blues
TTITLE7=In The Evening
TTITLE8=Big Fat Mama
TTITLE9=Back To Memphis
TTITLE10=Christina
TTITLE11=All By Myself
EXTD=Milan 73138 35678-2 (BMG Music]\nRecorded Live at The Hot Club Of France i
EXTD=n 1980
EXTT0=
EXTT1=
EXTT2=
EXTT3=
EXTT4=
EXTT5=
EXTT6=
EXTT7=
EXTT8=
EXTT9=
EXTT10=
EXTT11=
PLAYORDER=
